<svg width="53" height="15" viewBox="0 0 53 15" fill="none" xmlns="http://www.w3.org/2000/svg">
<g clip-path="url(#clip0_6673_28851)">
<path d="M13.8991 6.80183C13.8991 10.552 10.7931 13.592 6.96177 13.592C5.76047 13.592 4.63055 13.2933 3.64529 12.7673C1.48806 11.6159 0.0244141 9.37622 0.0244141 6.80183C0.0244141 3.0518 3.13037 0.0117188 6.96173 0.0117188C10.7931 0.0117188 13.8991 3.0518 13.8991 6.80183Z" fill="#20B276"/>
<path d="M9.73077 8.73391C8.99667 9.47435 8.10584 9.84481 7.05839 9.84481C6.41912 9.84481 5.82517 9.73891 5.26834 9.43125L5.26166 13.3741L5.20888 13.3601L5.17622 13.3519L5.13769 13.3314L5.11951 13.2992L5.10277 13.2628L5.12133 13.2401L3.28442 11.0963L3.28496 6.0287C3.28496 4.97277 3.65194 4.076 4.38608 3.33818C5.12003 2.6003 6.01086 2.23145 7.05839 2.23145C8.10584 2.23145 8.99664 2.60161 9.73077 3.34222C10.4647 4.08271 10.8318 4.9814 10.8318 6.0381C10.8318 7.09491 10.4647 7.99346 9.73077 8.73391ZM8.32957 4.75463C7.98106 4.40271 7.55732 4.22682 7.05839 4.22682C6.55934 4.22682 6.13564 4.40271 5.7872 4.75463C5.43866 5.10651 5.2644 5.53427 5.2644 6.03821C5.2644 6.542 5.43858 6.96973 5.7872 7.32165C6.13564 7.6736 6.55934 7.8496 7.05839 7.8496C7.55732 7.8496 7.98106 7.6736 8.32957 7.32165C8.67808 6.96973 8.85233 6.542 8.85233 6.03821C8.85233 5.53427 8.67808 5.10647 8.32957 4.75463Z" fill="#147F52"/>
<path d="M9.58632 8.59315C8.85226 9.3337 7.9615 9.70409 6.91401 9.70409C6.27474 9.70409 5.67679 9.55024 5.12006 9.24259L5.11947 13.35C5.11947 13.35 4.98396 13.3135 4.80759 13.2578C4.7641 13.244 4.72019 13.2293 4.6742 13.2134C4.65231 13.2058 4.64165 13.2013 4.61912 13.1949C4.56141 13.1787 4.4883 13.1473 4.43192 13.1258C4.24256 13.0537 4.08909 12.9849 4.08538 12.9832C4.08166 12.9815 3.53957 12.7283 3.47844 12.6909C3.42369 12.6575 3.37495 12.6312 3.33318 12.6019C3.31983 12.5925 3.30975 12.5859 3.29709 12.5774C3.19779 12.5106 3.14229 12.4722 3.14229 12.4722L3.14062 5.88809C3.14062 4.83212 3.50761 3.93531 4.24174 3.19755C4.97576 2.45962 5.86652 2.09082 6.91405 2.09082C7.96154 2.09082 8.8523 2.46099 9.58639 3.20159C10.3204 3.94209 10.6876 4.84075 10.6876 5.89741C10.6874 6.95415 10.3203 7.85266 9.58632 8.59315ZM8.18519 4.61387C7.83661 4.26199 7.41295 4.0861 6.91394 4.0861C6.41489 4.0861 5.99119 4.26199 5.64275 4.61387C5.29421 4.96578 5.11999 5.39355 5.11999 5.89741C5.11999 6.40128 5.29421 6.82901 5.64275 7.18085C5.99119 7.53292 6.41489 7.70887 6.91394 7.70887C7.41291 7.70887 7.83661 7.53292 8.18519 7.18085C8.53363 6.82901 8.70796 6.40128 8.70796 5.89741C8.70796 5.39355 8.53363 4.96578 8.18519 4.61387Z" fill="white"/>
<path d="M15.6387 11.3479V2.58142C15.6387 2.45178 15.6889 2.33779 15.7894 2.23938C15.8897 2.14103 16.0061 2.0918 16.1386 2.0918H18.6243C19.4506 2.0918 20.1549 2.3771 20.7369 2.94744C21.319 3.51778 21.61 4.20785 21.61 5.01752C21.61 5.82277 21.3185 6.51167 20.7357 7.08432C20.1528 7.657 19.4477 7.9432 18.6203 7.9432H17.1253C16.7962 7.9432 16.6316 7.78017 16.6316 7.45394V11.3481C16.6316 11.6744 16.4661 11.8375 16.1352 11.8375C15.8041 11.8375 15.6387 11.6743 15.6387 11.3479ZM16.6316 7.45394C16.6316 7.13222 16.7962 6.97138 17.1255 6.97138H18.621C19.1696 6.97138 19.6396 6.78089 20.0306 6.39979C20.4216 6.01866 20.6171 5.55898 20.6171 5.02094C20.6171 4.48298 20.4216 4.02228 20.0306 3.63881C19.6396 3.25552 19.1696 3.06375 18.621 3.06375H16.6316V7.45394Z" fill="white"/>
<path d="M27.2594 11.3471C27.2594 11.6737 27.0928 11.837 26.7596 11.837C26.4263 11.837 26.2619 11.6739 26.2665 11.3477C25.8237 11.6739 25.326 11.837 24.7736 11.837C24.0889 11.837 23.5022 11.5991 23.0138 11.1231C22.5252 10.6473 22.281 10.0741 22.281 9.40385C22.281 8.73357 22.5252 8.15946 23.0138 7.68128C23.5022 7.2032 24.0889 6.96408 24.7736 6.96408C25.326 6.96408 25.8237 7.12725 26.2665 7.45341C26.2665 7.04947 26.1204 6.70389 25.8283 6.41646C25.5361 6.12917 25.1845 5.98552 24.7737 5.98552C24.4861 5.98552 24.1973 6.08388 23.9075 6.28043C23.6175 6.47715 23.4384 6.5754 23.3699 6.5754C23.233 6.5754 23.1131 6.52491 23.0104 6.42392C22.9077 6.32301 22.8562 6.20516 22.8562 6.07051C22.8562 5.96286 22.9087 5.84851 23.0138 5.7272C23.4201 5.25153 24.0068 5.01367 24.7737 5.01367C25.4585 5.01367 26.044 5.25196 26.5302 5.72825C27.0164 6.20458 27.2595 6.77825 27.2595 7.44918V11.3471H27.2594ZM26.2665 9.40053C26.2665 8.99754 26.12 8.65266 25.8272 8.36599C25.5344 8.07939 25.182 7.936 24.7703 7.936C24.3584 7.936 24.0061 8.07939 23.7132 8.36599C23.4204 8.65266 23.274 8.99754 23.274 9.40053C23.274 9.80364 23.4204 10.1485 23.7132 10.4352C24.0061 10.7218 24.3585 10.8651 24.7703 10.8651C25.182 10.8651 25.5344 10.7218 25.8272 10.4352C26.12 10.1485 26.2665 9.80364 26.2665 9.40053Z" fill="white"/>
<path d="M35.5451 8.42251C35.5451 9.36627 35.205 10.1713 34.5248 10.8379C33.8445 11.5044 33.0228 11.8376 32.0595 11.8376C31.1008 11.8376 30.2813 11.5045 29.6011 10.8382C28.9208 10.172 28.5808 9.36711 28.5808 8.42357V2.58142C28.5808 2.25507 28.7474 2.0918 29.0807 2.0918C29.4094 2.0918 29.5737 2.25518 29.5737 2.58194V6.03968C30.2585 5.35603 31.0871 5.01417 32.0595 5.01417C33.0227 5.01417 33.8444 5.34743 34.5248 6.01389C35.205 6.68041 35.5451 7.48326 35.5451 8.42251ZM34.5521 8.42251C34.5521 7.7558 34.3079 7.18315 33.8194 6.70431C33.3309 6.22547 32.7443 5.98605 32.0595 5.98605C31.3792 5.98605 30.7949 6.22547 30.3065 6.70431C29.818 7.18315 29.5737 7.7558 29.5737 8.42251C29.5737 9.09367 29.818 9.66865 30.3065 10.1475C30.7949 10.6263 31.3793 10.8656 32.0595 10.8656C32.7443 10.8656 33.3309 10.6263 33.8194 10.1475C34.3079 9.66865 34.5521 9.09367 34.5521 8.42251Z" fill="white"/>
<path d="M43.5093 8.42251C43.5093 9.36627 43.169 10.1713 42.489 10.8379C41.8087 11.5044 40.987 11.8376 40.0235 11.8376C39.0648 11.8376 38.2453 11.5045 37.5654 10.8382C36.8849 10.172 36.5449 9.36711 36.5449 8.42357V2.58142C36.5449 2.25507 36.7115 2.0918 37.0448 2.0918C37.3735 2.0918 37.5379 2.25518 37.5379 2.58194V6.03968C38.2227 5.35603 39.0511 5.01417 40.0235 5.01417C40.987 5.01417 41.8087 5.34743 42.489 6.01389C43.169 6.68041 43.5093 7.48326 43.5093 8.42251ZM42.5165 8.42251C42.5165 7.7558 42.2719 7.18315 41.7835 6.70431C41.295 6.22547 40.7086 5.98605 40.0235 5.98605C39.3435 5.98605 38.759 6.22547 38.2705 6.70431C37.7821 7.18315 37.5379 7.7558 37.5379 8.42251C37.5379 9.09367 37.7821 9.66865 38.2705 10.1475C38.759 10.6263 39.3435 10.8656 40.0235 10.8656C40.7086 10.8656 41.295 10.6263 41.7835 10.1475C42.2719 9.66865 42.5165 9.09367 42.5165 8.42251Z" fill="white"/>
<path d="M46.9949 11.3482C46.9949 11.6745 46.8282 11.8375 46.4949 11.8375C45.9516 11.8375 45.485 11.6463 45.0946 11.264C44.7045 10.8817 44.5093 10.4223 44.5093 9.88562V2.58142C44.5093 2.25507 44.6759 2.0918 45.0092 2.0918C45.3377 2.0918 45.5021 2.25507 45.5021 2.58153V9.88628C45.5021 10.1546 45.6001 10.3849 45.7964 10.5772C45.9928 10.7695 46.2255 10.8656 46.4949 10.8656C46.8282 10.8656 46.9949 11.0264 46.9949 11.3482Z" fill="white"/>
<path d="M52.973 12.3245C52.973 12.9908 52.7299 13.5631 52.2437 14.0417C51.7575 14.5199 51.1722 14.7593 50.4874 14.7593C50.058 14.7593 49.6449 14.6497 49.2478 14.4309C48.8369 14.2073 48.5333 13.9147 48.337 13.5528C48.2869 13.4545 48.2616 13.3673 48.2616 13.2914C48.2616 13.1617 48.3155 13.049 48.4227 12.953C48.53 12.8568 48.6499 12.8088 48.7824 12.8088C48.8963 12.8088 49.1027 12.9719 49.4018 13.2981C49.701 13.6243 50.0628 13.7874 50.4874 13.7874C50.8983 13.7874 51.2498 13.6443 51.5418 13.3585C51.8339 13.0724 51.9802 12.7284 51.9802 12.3263V11.3476C51.5374 11.6739 51.0397 11.837 50.4874 11.837C49.8027 11.837 49.217 11.5988 48.7308 11.1225C48.2446 10.6462 48.0015 10.0725 48.0015 9.40148V5.49677C48.0015 5.17473 48.1681 5.01367 48.5014 5.01367C48.8302 5.01367 48.9943 5.17473 48.9943 5.49677V9.40221C48.9943 9.80491 49.1405 10.1494 49.4326 10.4357C49.7247 10.722 50.0766 10.8651 50.4874 10.8651C50.8983 10.8651 51.2498 10.722 51.5418 10.4357C51.8339 10.1494 51.9802 9.80487 51.9802 9.40221V5.49677C51.9802 5.17473 52.1468 5.01367 52.4801 5.01367C52.8086 5.01367 52.973 5.17462 52.973 5.49656V12.3245Z" fill="white"/>
</g>
<defs>
<clipPath id="clip0_6673_28851">
<rect width="53" height="14.7907" fill="white"/>
</clipPath>
</defs>
</svg>
